<svg width="406" height="368" viewBox="0 0 406 368" fill="none" xmlns="http://www.w3.org/2000/svg">
<!-- svg version="1.0" xmlns="http://www.w3.org/2000/svg"
 width="353.500000pt" height="397.103295pt" viewBox="0 0 353.500000 397.103295"
 preserveAspectRatio="xMidYMid meet"-->
    
    
    <g transform="translate(-222.0,598.1) scale(0.1,-0.1)" fill="url(#gradient1)" stroke="none">
        <path d="M2510 5351 l0 -630 478 -3 477 -4 81 -27 c389 -130 572 -562 393 -925 -53 -109 -170 -229 -275 -285 -126 -66 -193 -77 -466 -77 l-238 0 0 570 0 570 -225 0 -225 0 0 -641 0 -640 493 4 c545 4 533 2 687 73 209 97 379 303 436 
            529 21 85 23 263 5 350 -27 127 -95 263 -176 353 l-47 52 57 67 c66 80 137 219 162 318 27 111 22 286 -11 400 -77 258 -275 458 -541 546 -69 23 -79 24 -567 27 l-498 3 0 -630z m996 476 c87 -24 130 -43 206 -94 318 -210 392 -634 164 
            -941 -26 -35 -53 -65 -60 -68 -8 -3 -48 13 -90 36 l-76 42 49 55 c179 201 172 483 -17 676 -54 56 -162 112 -241 127 -29 6 -181 10 -337 10 l-284 0 0 -410 0 -411 -87 3 -88 3 -3 485 c-1 267 0 490 2 497 4 8 107 11 403 9 330 -3 408 -6 459 
            -19z m-4 -330 c119 -59 188 -174 188 -315 0 -64 -5 -87 -29 -138 -36 -76 -88 -129 -160 -163 -55 -25 -61 -26 -298 -29 l-243 -3 0 341 0 341 243 -3 c242 -3 242 -3 299 -31z m-682 -1592 l0 -505 -90 0 -90 0 0 498 c0 274 3 502 7 505 3 4 44 
            7 90 7 l83 0 0 -505z"
        />

        <path d="M3092 4473 l3 -68 175 -5 c203 -6 237 -16 318 -97 77 -77 97 -129 97 -248 0 -89 -3 -106 -27 -151 -35 -67 -124 -148 -186 -168 -34 -12 -94 -17 -212 -19 l-165 -2 -3 -68 -3 -69 194 4 193 3 78 38 c191 95 300 299 268 504 -31 194 
            -170 349 -357 398 -41 10 -108 15 -218 15 l-158 0 3 -67z"
        />

        <path d="M4310 5336 l0 -225 298 -3 297 -3 57 -28 c72 -35 140 -110 168 -185 31 -81 25 -205 -14 -280 -34 -67 -89 -122 -152 -153 -48 -24 -54 -24 -351 -27 l-303 -3 0 -584 0 -585 65 0 65 0 2 513 3 512 240 5 c219 5 245 8 297 28 187
            75 300 247 300 457 0 143 -44 246 -149 346 -117 112 -180 129 -475 129 l-219 0 3 88 3 87 232 -2 c261 -2 310 -10 432 -69 92 -45 211 -156 264 -246 50 -83 87 -204 94 -303 18 -254 -130 -511 -357 -624 -113 -55 -193 -71 -368 -71
            l-143 0 3 -67 3 -68 160 1 c189 0 275 17 391 73 197 96 342 259 407 462 145 444 -117 922 -563 1029 -76 18 -118 20 -387 20 l-303 0 0 -224z"
        />
        <defs>
        <linearGradient id="gradient1" x1="0%" y1="0%" x2="0%" y2="100%">
            <stop offset="0%" style="stop-color:#F70178; stop-opacity:1" />
            <stop offset="50%" style="stop-color:#A0089C; stop-opacity:1" />
            <stop offset="100%" style="stop-color:#630DB2; stop-opacity:1" />
        </linearGradient>
    </defs>
    </g></svg>

    